<svg width="24" height="24" viewBox="0 0 24 24" fill="none" xmlns="http://www.w3.org/2000/svg">
<path d="M21.375 20.25C21.375 20.5484 21.2565 20.8345 21.0455 21.0455C20.8345 21.2565 20.5484 21.375 20.25 21.375H3.75C3.45163 21.375 3.16548 21.2565 2.9545 21.0455C2.74353 20.8345 2.625 20.5484 2.625 20.25C2.625 19.9516 2.74353 19.6655 2.9545 19.4545C3.16548 19.2435 3.45163 19.125 3.75 19.125H20.25C20.5484 19.125 20.8345 19.2435 21.0455 19.4545C21.2565 19.6655 21.375 19.9516 21.375 20.25ZM7.5 16.875C7.64778 16.8751 7.79414 16.8461 7.93071 16.7897C8.06728 16.7332 8.19138 16.6504 8.29594 16.5459L16.875 7.96875V14.25C16.875 14.5484 16.9935 14.8345 17.2045 15.0455C17.4155 15.2565 17.7016 15.375 18 15.375C18.2984 15.375 18.5845 15.2565 18.7955 15.0455C19.0065 14.8345 19.125 14.5484 19.125 14.25V5.25C19.125 4.95163 19.0065 4.66548 18.7955 4.4545C18.5845 4.24353 18.2984 4.125 18 4.125H9C8.70163 4.125 8.41548 4.24353 8.2045 4.4545C7.99353 4.66548 7.875 4.95163 7.875 5.25C7.875 5.54837 7.99353 5.83452 8.2045 6.0455C8.41548 6.25647 8.70163 6.375 9 6.375H15.2812L6.70406 14.9541C6.54655 15.1114 6.43926 15.3119 6.39578 15.5303C6.3523 15.7486 6.37458 15.975 6.4598 16.1806C6.54502 16.3863 6.68935 16.5621 6.87452 16.6857C7.05969 16.8093 7.27737 16.8752 7.5 16.875Z" fill="#2D7BD6"/>
</svg>
