<svg width="64" height="64" viewBox="0 0 64 64" fill="none" xmlns="http://www.w3.org/2000/svg">
<path d="M42.6705 52.7273H29V12H42.5114C46.7008 12 50.3201 12.8153 53.3693 14.446C56.4318 16.0634 58.7917 18.3968 60.4489 21.446C62.1193 24.482 62.9545 28.1212 62.9545 32.3636C62.9545 36.6061 62.1259 40.2519 60.4688 43.3011C58.8116 46.3371 56.465 48.6705 53.429 50.3011C50.393 51.9186 46.8068 52.7273 42.6705 52.7273ZM36.0568 43.3409H42.2727C44.2879 43.3409 46.0047 43.0161 47.4233 42.3665C48.8551 41.7169 49.9422 40.5966 50.6847 39.0057C51.4403 37.4148 51.8182 35.2008 51.8182 32.3636C51.8182 29.5265 51.4337 27.3125 50.6648 25.7216C49.9091 24.1307 48.7955 23.0104 47.3239 22.3608C45.8655 21.7112 44.0758 21.3864 41.9545 21.3864H36.0568V43.3409Z" fill="#20D795"/>
<path d="M37.2386 12V52.7273H28.0114L13.2955 31.3295H13.0568V52.7273H2V12H11.3864L25.8636 33.3182H26.1818V12H37.2386Z" fill="#2D008C"/>
</svg>
