<svg width="32" height="32" viewBox="0 0 32 32" fill="none" xmlns="http://www.w3.org/2000/svg">
<g clip-path="url(#clip0_1054_1356)">
<path d="M16 0C24.8368 0 32 7.1632 32 16C32 24.8368 24.8368 32 16 32C7.1632 32 0 24.8368 0 16C0 7.1632 7.1632 0 16 0ZM23.1072 9.6C22.4976 9.6112 21.5616 9.9312 17.0608 11.7792C13.9016 13.0981 10.7511 14.4379 7.6096 15.7984C6.8416 16.1008 6.4416 16.3952 6.4048 16.6832C6.3344 17.2368 7.1408 17.408 8.1552 17.7344C8.9824 18 10.096 18.3104 10.6752 18.3232C11.2 18.3344 11.7856 18.12 12.432 17.6832C16.848 14.7392 19.1248 13.2528 19.2688 13.2208C19.3696 13.1984 19.5088 13.1696 19.6048 13.2528C19.6992 13.336 19.6896 13.4928 19.6784 13.536C19.5984 13.8736 15.4528 17.5968 15.2144 17.8416L15.0992 17.9568C14.2192 18.8256 13.3312 19.3936 14.864 20.3904C16.2496 21.2912 17.056 21.8656 18.48 22.7904C19.392 23.3792 20.1072 24.0784 21.048 23.9936C21.4816 23.9536 21.928 23.552 22.1568 22.352C22.6928 19.52 23.7488 13.3792 23.992 10.848C24.0067 10.638 23.9976 10.4271 23.9648 10.2192C23.9451 10.0514 23.8628 9.8971 23.7344 9.7872C23.5408 9.6304 23.24 9.5984 23.1072 9.6Z" fill="white"/>
</g>
<defs>
<clipPath id="clip0_1054_1356">
<rect width="32" height="32" fill="white"/>
</clipPath>
</defs>
</svg>
