<svg width="32" height="32" viewBox="0 0 32 32" fill="none" xmlns="http://www.w3.org/2000/svg">
<rect width="32" height="32" rx="16" fill="white"/>
<path d="M6.0625 10.9438C6.18852 10.3916 6.49832 9.89852 6.94115 9.54539C7.38398 9.19225 7.93361 8.99996 8.5 9H23.5C24.0664 8.99996 24.616 9.19225 25.0588 9.54539C25.5017 9.89852 25.8115 10.3916 25.9375 10.9438L16 17.0175L6.0625 10.9438ZM6 12.3713V21.2512L13.2537 16.8038L6 12.3713ZM14.4513 17.5375L6.23875 22.5713C6.44166 22.9991 6.76191 23.3605 7.16223 23.6135C7.56255 23.8664 8.02647 24.0005 8.5 24H23.5C23.9735 24.0001 24.4372 23.8658 24.8373 23.6126C25.2374 23.3595 25.5574 22.9979 25.76 22.57L17.5475 17.5363L16 18.4825L14.4513 17.5375ZM18.7462 16.805L26 21.2512V12.3713L18.7462 16.8038V16.805Z" fill="#041941"/>
</svg>
