<svg width="32" height="33" viewBox="0 0 32 33" fill="none" xmlns="http://www.w3.org/2000/svg">
<path d="M16 7.9165C14.9122 7.9165 13.8488 8.23907 12.9444 8.84342C12.0399 9.44777 11.3349 10.3068 10.9187 11.3117C10.5024 12.3167 10.3935 13.4226 10.6057 14.4895C10.8179 15.5564 11.3417 16.5364 12.1109 17.3056C12.8801 18.0748 13.8601 18.5986 14.927 18.8108C15.9939 19.023 17.0998 18.9141 18.1048 18.4978C19.1098 18.0816 19.9687 17.3766 20.5731 16.4721C21.1774 15.5677 21.5 14.5043 21.5 13.4165C21.4983 11.9583 20.9184 10.5603 19.8873 9.52924C18.8562 8.49815 17.4582 7.91816 16 7.9165ZM16 15.9165C15.5055 15.9165 15.0222 15.7699 14.6111 15.4952C14.2 15.2205 13.8795 14.83 13.6903 14.3732C13.5011 13.9164 13.4516 13.4137 13.548 12.9288C13.6445 12.4438 13.8826 11.9984 14.2322 11.6487C14.5819 11.2991 15.0273 11.061 15.5123 10.9645C15.9972 10.8681 16.4999 10.9176 16.9567 11.1068C17.4135 11.296 17.804 11.6165 18.0787 12.0276C18.3534 12.4387 18.5 12.922 18.5 13.4165C18.5 14.0795 18.2366 14.7154 17.7678 15.1843C17.2989 15.6531 16.663 15.9165 16 15.9165ZM16 1.9165C12.951 1.91981 10.0279 3.13248 7.87193 5.28843C5.71597 7.44438 4.50331 10.3675 4.5 13.4165C4.5 23.0865 14.705 30.3415 15.14 30.6453C15.3921 30.8217 15.6923 30.9163 16 30.9163C16.3077 30.9163 16.6079 30.8217 16.86 30.6453C18.7928 29.2208 20.5612 27.5857 22.1325 25.7703C25.6437 21.7378 27.5 17.4628 27.5 13.4165C27.4967 10.3675 26.284 7.44438 24.1281 5.28843C21.9721 3.13248 19.049 1.91981 16 1.9165ZM19.9125 23.7553C18.7207 25.1243 17.4115 26.3866 16 27.5278C14.5885 26.3866 13.2793 25.1243 12.0875 23.7553C10 21.3378 7.5 17.5803 7.5 13.4165C7.5 11.1622 8.39553 9.00016 9.98959 7.4061C11.5837 5.81204 13.7457 4.9165 16 4.9165C18.2543 4.9165 20.4163 5.81204 22.0104 7.4061C23.6045 9.00016 24.5 11.1622 24.5 13.4165C24.5 17.5803 22 21.3378 19.9125 23.7553Z" fill="white"/>
</svg>
